<?xml version="1.0" encoding="utf-8" standalone="no"?>
<!DOCTYPE svg PUBLIC "-//W3C//DTD SVG 1.1//EN"
  "http://www.w3.org/Graphics/SVG/1.1/DTD/svg11.dtd">
<svg xmlns:xlink="http://www.w3.org/1999/xlink" width="628.2pt" height="615.673469pt" viewBox="0 0 628.2 615.673469" xmlns="http://www.w3.org/2000/svg" version="1.1">
 <metadata>
  <rdf:RDF xmlns:dc="http://purl.org/dc/elements/1.1/" xmlns:cc="http://creativecommons.org/ns#" xmlns:rdf="http://www.w3.org/1999/02/22-rdf-syntax-ns#">
   <cc:Work>
    <dc:type rdf:resource="http://purl.org/dc/dcmitype/StillImage"/>
    <dc:date>2026-07-12T19:39:02.369053</dc:date>
    <dc:format>image/svg+xml</dc:format>
    <dc:creator>
     <cc:Agent>
      <dc:title>Matplotlib v3.10.8, https://matplotlib.org/</dc:title>
     </cc:Agent>
    </dc:creator>
   </cc:Work>
  </rdf:RDF>
 </metadata>
 <defs>
  <style type="text/css">*{stroke-linejoin: round; stroke-linecap: butt}</style>
 </defs>
 <g id="figure_1">
  <g id="patch_1">
   <path d="M 0 615.673469 
L 628.2 615.673469 
L 628.2 0 
L 0 0 
z
" style="fill: #ffffff"/>
  </g>
  <g id="axes_1">
   <g id="patch_2">
    <path d="M 317.231633 498.866327 
L 511.392857 498.866327 
L 511.392857 304.705102 
L 317.231633 304.705102 
z
" clip-path="url(#pfe0e48fee5)" style="fill: #ffffff; opacity: 0.75"/>
   </g>
   <g id="patch_3">
    <path d="M 317.231633 298.441837 
L 511.392857 298.441837 
L 511.392857 104.280612 
L 317.231633 104.280612 
z
" clip-path="url(#pfe0e48fee5)" style="fill: #ffffff; opacity: 0.75"/>
   </g>
   <g id="patch_4">
    <path d="M 116.807143 498.866327 
L 310.968367 498.866327 
L 310.968367 304.705102 
L 116.807143 304.705102 
z
" clip-path="url(#pfe0e48fee5)" style="fill: #ffffff; opacity: 0.75"/>
   </g>
   <g id="patch_5">
    <path d="M 116.807143 298.441837 
L 310.968367 298.441837 
L 310.968367 104.280612 
L 116.807143 104.280612 
z
" clip-path="url(#pfe0e48fee5)" style="fill: #ffffff; opacity: 0.75"/>
   </g>
   <g id="patch_6">
    <path d="M 317.231633 392.390816 
L 404.917347 392.390816 
L 404.917347 304.705102 
L 317.231633 304.705102 
z
" clip-path="url(#pfe0e48fee5)" style="fill: #ffffff; opacity: 0.75"/>
   </g>
   <g id="patch_7">
    <path d="M 173.176531 298.441837 
L 260.862245 298.441837 
L 260.862245 235.809184 
L 173.176531 235.809184 
z
" clip-path="url(#pfe0e48fee5)" style="fill: #ffffff; opacity: 0.75"/>
   </g>
   <g id="patch_8">
    <path d="M 116.807143 548.972449 
L 310.968367 548.972449 
L 310.968367 498.866327 
L 116.807143 498.866327 
z
" clip-path="url(#pfe0e48fee5)" style="fill: #ffffff; opacity: 0.75; stroke-dasharray: 3.7,1.6; stroke-dashoffset: 0; stroke: #000000; stroke-linejoin: miter"/>
   </g>
   <g id="patch_9">
    <path d="M 116.807143 354.811224 
L 166.913265 354.811224 
L 166.913265 304.705102 
L 116.807143 304.705102 
z
" clip-path="url(#pfe0e48fee5)" style="fill: #ffffff; opacity: 0.75"/>
   </g>
   <g id="patch_10">
    <path d="M 260.862245 298.441837 
L 310.968367 298.441837 
L 310.968367 248.335714 
L 260.862245 248.335714 
z
" clip-path="url(#pfe0e48fee5)" style="fill: #ffffff; opacity: 0.75; stroke-dasharray: 1,1.65; stroke-dashoffset: 0; stroke: #000000; stroke-linejoin: miter"/>
   </g>
   <g id="patch_11">
    <path d="M 270.257143 455.023469 
C 258.633754 455.023469 247.474539 459.645768 239.255561 467.864745 
C 231.036584 476.083722 226.414286 487.242937 226.414286 498.866327 
" clip-path="url(#pfe0e48fee5)" style="fill: none; stroke-dasharray: 1.2,1.98; stroke-dashoffset: 0; stroke: #000000; stroke-width: 1.2; stroke-linejoin: miter"/>
   </g>
   <g id="patch_12">
    <path d="M 141.860204 304.705102 
C 141.860204 311.347039 144.501517 317.723733 149.198076 322.420292 
C 153.894634 327.11685 160.271329 329.758163 166.913265 329.758163 
" clip-path="url(#pfe0e48fee5)" style="fill: none; stroke-dasharray: 1.2,1.98; stroke-dashoffset: 0; stroke: #000000; stroke-width: 1.2; stroke-linejoin: miter"/>
   </g>
   <g id="patch_13">
    <path d="M 351.679592 357.942857 
C 351.679592 347.979952 347.717622 338.414911 340.672784 331.370073 
C 333.627947 324.325235 324.062905 320.363265 314.1 320.363265 
" clip-path="url(#pfe0e48fee5)" style="fill: none; stroke-dasharray: 1.2,1.98; stroke-dashoffset: 0; stroke: #000000; stroke-width: 1.2; stroke-linejoin: miter"/>
   </g>
   <g id="patch_14">
    <path d="M 260.862245 260.862245 
C 250.89934 260.862245 241.334298 264.824215 234.289461 271.869053 
C 227.244623 278.91389 223.282653 288.478932 223.282653 298.441837 
" clip-path="url(#pfe0e48fee5)" style="fill: none; stroke-dasharray: 1.2,1.98; stroke-dashoffset: 0; stroke: #000000; stroke-width: 1.2; stroke-linejoin: miter"/>
   </g>
   <g id="patch_15">
    <path d="M 404.917347 354.811224 
C 396.614926 354.811224 388.644058 358.112866 382.77336 363.983564 
C 376.902662 369.854262 373.60102 377.82513 373.60102 386.127551 
" clip-path="url(#pfe0e48fee5)" style="fill: none; stroke-dasharray: 1.2,1.98; stroke-dashoffset: 0; stroke: #000000; stroke-width: 1.2; stroke-linejoin: miter"/>
   </g>
   <g id="patch_16">
    <path d="M 251.467347 204.492857 
C 243.164926 204.492857 235.194058 207.794499 229.32336 213.665197 
C 223.452662 219.535895 220.15102 227.506763 220.15102 235.809184 
" clip-path="url(#pfe0e48fee5)" style="fill: none; stroke-dasharray: 1.2,1.98; stroke-dashoffset: 0; stroke: #000000; stroke-width: 1.2; stroke-linejoin: miter"/>
   </g>
   <g id="patch_17">
    <path d="M 486.339796 298.441837 
L 511.392857 298.441837 
L 511.392857 104.280612 
L 486.339796 104.280612 
z
" clip-path="url(#pfe0e48fee5)" style="fill: #ffffff; stroke: #000000; stroke-width: 0.8; stroke-linejoin: miter"/>
   </g>
   <g id="patch_18">
    <path d="M 317.231633 129.333673 
L 486.339796 129.333673 
L 486.339796 104.280612 
L 317.231633 104.280612 
z
" clip-path="url(#pfe0e48fee5)" style="fill: #ffffff; stroke: #000000; stroke-width: 0.8; stroke-linejoin: miter"/>
   </g>
   <g id="text_1">
    <text style="font-weight: 700; font-size: 13px; font-family: 'Noto Sans Telugu', 'DejaVu Sans', 'Liberation Sans', 'Arial', sans-serif; text-anchor: middle" x="314.1" y="45.577098" transform="rotate(-0 314.1 45.577098)">1,089 చ.అ. ప్రధాన ఇల్లు మరియు 62 చ.అ. చిన్న పంచ (వాస్తు ప్లాన్)</text>
   </g>
   <g id="patch_19">
    <path d="M 470.681633 508.261224 
L 520.787755 508.261224 
L 520.787755 498.866327 
L 470.681633 498.866327 
z
" clip-path="url(#pfe0e48fee5)" style="fill: #ffffff; stroke: #000000; stroke-width: 1.2; stroke-linejoin: miter"/>
   </g>
   <g id="patch_20">
    <path d="M 404.917347 508.261224 
L 433.102041 508.261224 
L 433.102041 498.866327 
L 404.917347 498.866327 
z
" clip-path="url(#pfe0e48fee5)" style="fill: #ffffff; stroke: #000000; stroke-width: 1.2; stroke-linejoin: miter"/>
   </g>
   <g id="patch_21">
    <path d="M 370.469388 508.261224 
L 404.917347 508.261224 
L 404.917347 498.866327 
L 370.469388 498.866327 
z
" clip-path="url(#pfe0e48fee5)" style="fill: #ffffff; stroke: #000000; stroke-width: 1.2; stroke-linejoin: miter"/>
   </g>
   <g id="patch_22">
    <path d="M 317.231633 508.261224 
L 345.416327 508.261224 
L 345.416327 498.866327 
L 317.231633 498.866327 
z
" clip-path="url(#pfe0e48fee5)" style="fill: #ffffff; stroke: #000000; stroke-width: 1.2; stroke-linejoin: miter"/>
   </g>
   <g id="patch_23">
    <path d="M 270.257143 508.261224 
L 317.231633 508.261224 
L 317.231633 498.866327 
L 270.257143 498.866327 
z
" clip-path="url(#pfe0e48fee5)" style="fill: #ffffff; stroke: #000000; stroke-width: 1.2; stroke-linejoin: miter"/>
   </g>
   <g id="patch_24">
    <path d="M 195.097959 508.261224 
L 226.414286 508.261224 
L 226.414286 498.866327 
L 195.097959 498.866327 
z
" clip-path="url(#pfe0e48fee5)" style="fill: #ffffff; stroke: #000000; stroke-width: 1.2; stroke-linejoin: miter"/>
   </g>
   <g id="patch_25">
    <path d="M 107.412245 508.261224 
L 157.518367 508.261224 
L 157.518367 498.866327 
L 107.412245 498.866327 
z
" clip-path="url(#pfe0e48fee5)" style="fill: #ffffff; stroke: #000000; stroke-width: 1.2; stroke-linejoin: miter"/>
   </g>
   <g id="patch_26">
    <path d="M 470.681633 104.280612 
L 520.787755 104.280612 
L 520.787755 94.885714 
L 470.681633 94.885714 
z
" clip-path="url(#pfe0e48fee5)" style="fill: #ffffff; stroke: #000000; stroke-width: 1.2; stroke-linejoin: miter"/>
   </g>
   <g id="patch_27">
    <path d="M 245.204082 104.280612 
L 420.57551 104.280612 
L 420.57551 94.885714 
L 245.204082 94.885714 
z
" clip-path="url(#pfe0e48fee5)" style="fill: #ffffff; stroke: #000000; stroke-width: 1.2; stroke-linejoin: miter"/>
   </g>
   <g id="patch_28">
    <path d="M 107.412245 104.280612 
L 195.097959 104.280612 
L 195.097959 94.885714 
L 107.412245 94.885714 
z
" clip-path="url(#pfe0e48fee5)" style="fill: #ffffff; stroke: #000000; stroke-width: 1.2; stroke-linejoin: miter"/>
   </g>
   <g id="patch_29">
    <path d="M 511.392857 508.261224 
L 520.787755 508.261224 
L 520.787755 458.155102 
L 511.392857 458.155102 
z
" clip-path="url(#pfe0e48fee5)" style="fill: #ffffff; stroke: #000000; stroke-width: 1.2; stroke-linejoin: miter"/>
   </g>
   <g id="patch_30">
    <path d="M 511.392857 408.04898 
L 520.787755 408.04898 
L 520.787755 232.677551 
L 511.392857 232.677551 
z
" clip-path="url(#pfe0e48fee5)" style="fill: #ffffff; stroke: #000000; stroke-width: 1.2; stroke-linejoin: miter"/>
   </g>
   <g id="patch_31">
    <path d="M 511.392857 182.571429 
L 520.787755 182.571429 
L 520.787755 94.885714 
L 511.392857 94.885714 
z
" clip-path="url(#pfe0e48fee5)" style="fill: #ffffff; stroke: #000000; stroke-width: 1.2; stroke-linejoin: miter"/>
   </g>
   <g id="patch_32">
    <path d="M 107.412245 508.261224 
L 116.807143 508.261224 
L 116.807143 458.155102 
L 107.412245 458.155102 
z
" clip-path="url(#pfe0e48fee5)" style="fill: #ffffff; stroke: #000000; stroke-width: 1.2; stroke-linejoin: miter"/>
   </g>
   <g id="patch_33">
    <path d="M 107.412245 408.04898 
L 116.807143 408.04898 
L 116.807143 345.416327 
L 107.412245 345.416327 
z
" clip-path="url(#pfe0e48fee5)" style="fill: #ffffff; stroke: #000000; stroke-width: 1.2; stroke-linejoin: miter"/>
   </g>
   <g id="patch_34">
    <path d="M 107.412245 320.363265 
L 116.807143 320.363265 
L 116.807143 282.783673 
L 107.412245 282.783673 
z
" clip-path="url(#pfe0e48fee5)" style="fill: #ffffff; stroke: #000000; stroke-width: 1.2; stroke-linejoin: miter"/>
   </g>
   <g id="patch_35">
    <path d="M 107.412245 257.730612 
L 116.807143 257.730612 
L 116.807143 232.677551 
L 107.412245 232.677551 
z
" clip-path="url(#pfe0e48fee5)" style="fill: #ffffff; stroke: #000000; stroke-width: 1.2; stroke-linejoin: miter"/>
   </g>
   <g id="patch_36">
    <path d="M 107.412245 182.571429 
L 116.807143 182.571429 
L 116.807143 94.885714 
L 107.412245 94.885714 
z
" clip-path="url(#pfe0e48fee5)" style="fill: #ffffff; stroke: #000000; stroke-width: 1.2; stroke-linejoin: miter"/>
   </g>
   <g id="patch_37">
    <path d="M 470.681633 304.705102 
L 520.787755 304.705102 
L 520.787755 298.441837 
L 470.681633 298.441837 
z
" clip-path="url(#pfe0e48fee5)" style="fill: #ffffff; stroke: #000000; stroke-width: 1.2; stroke-linejoin: miter"/>
   </g>
   <g id="patch_38">
    <path d="M 310.968367 304.705102 
L 470.681633 304.705102 
L 470.681633 298.441837 
L 310.968367 298.441837 
z
" clip-path="url(#pfe0e48fee5)" style="fill: #ffffff; stroke: #000000; stroke-width: 1.2; stroke-linejoin: miter"/>
   </g>
   <g id="patch_39">
    <path d="M 107.412245 304.705102 
L 260.862245 304.705102 
L 260.862245 298.441837 
L 107.412245 298.441837 
z
" clip-path="url(#pfe0e48fee5)" style="fill: #ffffff; stroke: #000000; stroke-width: 1.2; stroke-linejoin: miter"/>
   </g>
   <g id="patch_40">
    <path d="M 310.968367 508.261224 
L 317.231633 508.261224 
L 317.231633 357.942857 
L 310.968367 357.942857 
z
" clip-path="url(#pfe0e48fee5)" style="fill: #ffffff; stroke: #000000; stroke-width: 1.2; stroke-linejoin: miter"/>
   </g>
   <g id="patch_41">
    <path d="M 310.968367 320.363265 
L 317.231633 320.363265 
L 317.231633 301.573469 
L 310.968367 301.573469 
z
" clip-path="url(#pfe0e48fee5)" style="fill: #ffffff; stroke: #000000; stroke-width: 1.2; stroke-linejoin: miter"/>
   </g>
   <g id="patch_42">
    <path d="M 310.968367 248.335714 
L 317.231633 248.335714 
L 317.231633 94.885714 
L 310.968367 94.885714 
z
" clip-path="url(#pfe0e48fee5)" style="fill: #ffffff; stroke: #000000; stroke-width: 1.2; stroke-linejoin: miter"/>
   </g>
   <g id="patch_43">
    <path d="M 257.730612 298.441837 
L 263.993878 298.441837 
L 263.993878 248.335714 
L 257.730612 248.335714 
z
" clip-path="url(#pfe0e48fee5)" style="fill: #ffffff; stroke: #000000; stroke-width: 1.2; stroke-linejoin: miter"/>
   </g>
   <g id="patch_44">
    <path d="M 260.862245 251.467347 
L 310.968367 251.467347 
L 310.968367 245.204082 
L 260.862245 245.204082 
z
" clip-path="url(#pfe0e48fee5)" style="fill: #ffffff; stroke: #000000; stroke-width: 1.2; stroke-linejoin: miter"/>
   </g>
   <g id="patch_45">
    <path d="M 317.231633 395.522449 
L 404.917347 395.522449 
L 404.917347 389.259184 
L 317.231633 389.259184 
z
" clip-path="url(#pfe0e48fee5)" style="fill: #ffffff; stroke: #000000; stroke-width: 1.2; stroke-linejoin: miter"/>
   </g>
   <g id="patch_46">
    <path d="M 401.785714 392.390816 
L 408.04898 392.390816 
L 408.04898 304.705102 
L 401.785714 304.705102 
z
" clip-path="url(#pfe0e48fee5)" style="fill: #ffffff; stroke: #000000; stroke-width: 1.2; stroke-linejoin: miter"/>
   </g>
   <g id="patch_47">
    <path d="M 173.176531 238.940816 
L 260.862245 238.940816 
L 260.862245 232.677551 
L 173.176531 232.677551 
z
" clip-path="url(#pfe0e48fee5)" style="fill: #ffffff; stroke: #000000; stroke-width: 1.2; stroke-linejoin: miter"/>
   </g>
   <g id="patch_48">
    <path d="M 170.044898 298.441837 
L 176.308163 298.441837 
L 176.308163 235.809184 
L 170.044898 235.809184 
z
" clip-path="url(#pfe0e48fee5)" style="fill: #ffffff; stroke: #000000; stroke-width: 1.2; stroke-linejoin: miter"/>
   </g>
   <g id="patch_49">
    <path d="M 116.807143 357.003367 
L 166.913265 357.003367 
L 166.913265 352.619082 
L 116.807143 352.619082 
z
" clip-path="url(#pfe0e48fee5)" style="fill: #ffffff; stroke: #000000; stroke-width: 1.2; stroke-linejoin: miter"/>
   </g>
   <g id="patch_50">
    <path d="M 164.721122 354.811224 
L 169.105408 354.811224 
L 169.105408 329.758163 
L 164.721122 329.758163 
z
" clip-path="url(#pfe0e48fee5)" style="fill: #ffffff; stroke: #000000; stroke-width: 1.2; stroke-linejoin: miter"/>
   </g>
   <g id="text_2">
    <text style="font-weight: 700; font-size: 11px; font-family: 'Noto Sans Telugu', 'DejaVu Sans', 'Liberation Sans', 'Arial', sans-serif; text-anchor: middle" x="314.1" y="68.28306" transform="rotate(-0 314.1 68.28306)">▲  తూర్పు  ▲</text>
   </g>
   <g id="text_3">
    <text style="font-weight: 700; font-size: 11px; font-family: 'Noto Sans Telugu', 'DejaVu Sans', 'Liberation Sans', 'Arial', sans-serif; text-anchor: middle" x="314.1" y="577.325668" transform="rotate(-0 314.1 577.325668)">▼  పడమర  ▼</text>
   </g>
   <g id="text_4">
    <text style="font-weight: 700; font-size: 11px; font-family: 'Noto Sans Telugu', 'DejaVu Sans', 'Liberation Sans', 'Arial', sans-serif; text-anchor: middle" x="47.284898" y="306.287141" transform="rotate(-0 47.284898 306.287141)">◀  ఉత్తరం  ◀</text>
   </g>
   <g id="text_5">
    <text style="font-weight: 700; font-size: 11px; font-family: 'Noto Sans Telugu', 'DejaVu Sans', 'Liberation Sans', 'Arial', sans-serif; text-anchor: middle" x="577.157143" y="305.588469" transform="rotate(-0 577.157143 305.588469)">▶  దక్షిణం  ▶</text>
   </g>
   <g id="line2d_1">
    <path d="M 270.257143 498.866327 
L 270.257143 455.023469 
" clip-path="url(#pfe0e48fee5)" style="fill: none; stroke: #000000; stroke-width: 1.8; stroke-linecap: square"/>
   </g>
   <g id="line2d_2">
    <path d="M 166.913265 304.705102 
L 141.860204 304.705102 
" clip-path="url(#pfe0e48fee5)" style="fill: none; stroke: #000000; stroke-width: 1.8; stroke-linecap: square"/>
   </g>
   <g id="line2d_3">
    <path d="M 314.1 357.942857 
L 351.679592 357.942857 
" clip-path="url(#pfe0e48fee5)" style="fill: none; stroke: #000000; stroke-width: 1.8; stroke-linecap: square"/>
   </g>
   <g id="line2d_4">
    <path d="M 260.862245 298.441837 
L 223.282653 298.441837 
" clip-path="url(#pfe0e48fee5)" style="fill: none; stroke: #000000; stroke-width: 1.8; stroke-linecap: square"/>
   </g>
   <g id="line2d_5">
    <path d="M 404.917347 386.127551 
L 373.60102 386.127551 
" clip-path="url(#pfe0e48fee5)" style="fill: none; stroke: #000000; stroke-width: 1.8; stroke-linecap: square"/>
   </g>
   <g id="line2d_6">
    <path d="M 251.467347 235.809184 
L 251.467347 204.492857 
" clip-path="url(#pfe0e48fee5)" style="fill: none; stroke: #000000; stroke-width: 1.8; stroke-linecap: square"/>
   </g>
   <g id="patch_51">
    <path d="M 433.102041 507.321735 
L 470.681633 507.321735 
L 470.681633 499.805816 
L 433.102041 499.805816 
z
" clip-path="url(#pfe0e48fee5)" style="fill: #ffffff; stroke: #000000; stroke-width: 0.8; stroke-linejoin: miter"/>
   </g>
   <g id="patch_52">
    <path d="M 157.518367 507.321735 
L 195.097959 507.321735 
L 195.097959 499.805816 
L 157.518367 499.805816 
z
" clip-path="url(#pfe0e48fee5)" style="fill: #ffffff; stroke: #000000; stroke-width: 0.8; stroke-linejoin: miter"/>
   </g>
   <g id="patch_53">
    <path d="M 345.416327 507.321735 
L 370.469388 507.321735 
L 370.469388 499.805816 
L 345.416327 499.805816 
z
" clip-path="url(#pfe0e48fee5)" style="fill: #ffffff; stroke: #000000; stroke-width: 0.8; stroke-linejoin: miter"/>
   </g>
   <g id="patch_54">
    <path d="M 420.57551 103.341122 
L 470.681633 103.341122 
L 470.681633 95.825204 
L 420.57551 95.825204 
z
" clip-path="url(#pfe0e48fee5)" style="fill: #ffffff; stroke: #000000; stroke-width: 0.8; stroke-linejoin: miter"/>
   </g>
   <g id="patch_55">
    <path d="M 195.097959 103.341122 
L 245.204082 103.341122 
L 245.204082 95.825204 
L 195.097959 95.825204 
z
" clip-path="url(#pfe0e48fee5)" style="fill: #ffffff; stroke: #000000; stroke-width: 0.8; stroke-linejoin: miter"/>
   </g>
   <g id="patch_56">
    <path d="M 512.332347 458.155102 
L 519.848265 458.155102 
L 519.848265 408.04898 
L 512.332347 408.04898 
z
" clip-path="url(#pfe0e48fee5)" style="fill: #ffffff; stroke: #000000; stroke-width: 0.8; stroke-linejoin: miter"/>
   </g>
   <g id="patch_57">
    <path d="M 512.332347 232.677551 
L 519.848265 232.677551 
L 519.848265 182.571429 
L 512.332347 182.571429 
z
" clip-path="url(#pfe0e48fee5)" style="fill: #ffffff; stroke: #000000; stroke-width: 0.8; stroke-linejoin: miter"/>
   </g>
   <g id="patch_58">
    <path d="M 108.351735 458.155102 
L 115.867653 458.155102 
L 115.867653 408.04898 
L 108.351735 408.04898 
z
" clip-path="url(#pfe0e48fee5)" style="fill: #ffffff; stroke: #000000; stroke-width: 0.8; stroke-linejoin: miter"/>
   </g>
   <g id="patch_59">
    <path d="M 108.351735 232.677551 
L 115.867653 232.677551 
L 115.867653 182.571429 
L 108.351735 182.571429 
z
" clip-path="url(#pfe0e48fee5)" style="fill: #ffffff; stroke: #000000; stroke-width: 0.8; stroke-linejoin: miter"/>
   </g>
   <g id="patch_60">
    <path d="M 108.351735 282.783673 
L 115.867653 282.783673 
L 115.867653 257.730612 
L 108.351735 257.730612 
z
" clip-path="url(#pfe0e48fee5)" style="fill: #ffffff; stroke: #000000; stroke-width: 0.8; stroke-linejoin: miter"/>
   </g>
   <g id="line2d_7">
    <path d="M 433.102041 503.563776 
L 470.681633 503.563776 
" clip-path="url(#pfe0e48fee5)" style="fill: none; stroke: #000000; stroke-width: 1.5; stroke-linecap: square"/>
   </g>
   <g id="line2d_8">
    <path d="M 433.102041 505.442755 
L 470.681633 505.442755 
" clip-path="url(#pfe0e48fee5)" style="fill: none; stroke: #000000; stroke-width: 0.5; stroke-linecap: square"/>
   </g>
   <g id="line2d_9">
    <path d="M 433.102041 501.684796 
L 470.681633 501.684796 
" clip-path="url(#pfe0e48fee5)" style="fill: none; stroke: #000000; stroke-width: 0.5; stroke-linecap: square"/>
   </g>
   <g id="line2d_10">
    <path d="M 157.518367 503.563776 
L 195.097959 503.563776 
" clip-path="url(#pfe0e48fee5)" style="fill: none; stroke: #000000; stroke-width: 1.5; stroke-linecap: square"/>
   </g>
   <g id="line2d_11">
    <path d="M 157.518367 505.442755 
L 195.097959 505.442755 
" clip-path="url(#pfe0e48fee5)" style="fill: none; stroke: #000000; stroke-width: 0.5; stroke-linecap: square"/>
   </g>
   <g id="line2d_12">
    <path d="M 157.518367 501.684796 
L 195.097959 501.684796 
" clip-path="url(#pfe0e48fee5)" style="fill: none; stroke: #000000; stroke-width: 0.5; stroke-linecap: square"/>
   </g>
   <g id="line2d_13">
    <path d="M 345.416327 503.563776 
L 370.469388 503.563776 
" clip-path="url(#pfe0e48fee5)" style="fill: none; stroke: #000000; stroke-width: 1.5; stroke-linecap: square"/>
   </g>
   <g id="line2d_14">
    <path d="M 345.416327 505.442755 
L 370.469388 505.442755 
" clip-path="url(#pfe0e48fee5)" style="fill: none; stroke: #000000; stroke-width: 0.5; stroke-linecap: square"/>
   </g>
   <g id="line2d_15">
    <path d="M 345.416327 501.684796 
L 370.469388 501.684796 
" clip-path="url(#pfe0e48fee5)" style="fill: none; stroke: #000000; stroke-width: 0.5; stroke-linecap: square"/>
   </g>
   <g id="line2d_16">
    <path d="M 420.57551 99.583163 
L 470.681633 99.583163 
" clip-path="url(#pfe0e48fee5)" style="fill: none; stroke: #000000; stroke-width: 1.5; stroke-linecap: square"/>
   </g>
   <g id="line2d_17">
    <path d="M 420.57551 101.462143 
L 470.681633 101.462143 
" clip-path="url(#pfe0e48fee5)" style="fill: none; stroke: #000000; stroke-width: 0.5; stroke-linecap: square"/>
   </g>
   <g id="line2d_18">
    <path d="M 420.57551 97.704184 
L 470.681633 97.704184 
" clip-path="url(#pfe0e48fee5)" style="fill: none; stroke: #000000; stroke-width: 0.5; stroke-linecap: square"/>
   </g>
   <g id="line2d_19">
    <path d="M 195.097959 99.583163 
L 245.204082 99.583163 
" clip-path="url(#pfe0e48fee5)" style="fill: none; stroke: #000000; stroke-width: 1.5; stroke-linecap: square"/>
   </g>
   <g id="line2d_20">
    <path d="M 195.097959 101.462143 
L 245.204082 101.462143 
" clip-path="url(#pfe0e48fee5)" style="fill: none; stroke: #000000; stroke-width: 0.5; stroke-linecap: square"/>
   </g>
   <g id="line2d_21">
    <path d="M 195.097959 97.704184 
L 245.204082 97.704184 
" clip-path="url(#pfe0e48fee5)" style="fill: none; stroke: #000000; stroke-width: 0.5; stroke-linecap: square"/>
   </g>
   <g id="line2d_22">
    <path d="M 516.090306 458.155102 
L 516.090306 408.04898 
" clip-path="url(#pfe0e48fee5)" style="fill: none; stroke: #000000; stroke-width: 1.5; stroke-linecap: square"/>
   </g>
   <g id="line2d_23">
    <path d="M 514.211327 458.155102 
L 514.211327 408.04898 
" clip-path="url(#pfe0e48fee5)" style="fill: none; stroke: #000000; stroke-width: 0.5; stroke-linecap: square"/>
   </g>
   <g id="line2d_24">
    <path d="M 517.969286 458.155102 
L 517.969286 408.04898 
" clip-path="url(#pfe0e48fee5)" style="fill: none; stroke: #000000; stroke-width: 0.5; stroke-linecap: square"/>
   </g>
   <g id="line2d_25">
    <path d="M 516.090306 232.677551 
L 516.090306 182.571429 
" clip-path="url(#pfe0e48fee5)" style="fill: none; stroke: #000000; stroke-width: 1.5; stroke-linecap: square"/>
   </g>
   <g id="line2d_26">
    <path d="M 514.211327 232.677551 
L 514.211327 182.571429 
" clip-path="url(#pfe0e48fee5)" style="fill: none; stroke: #000000; stroke-width: 0.5; stroke-linecap: square"/>
   </g>
   <g id="line2d_27">
    <path d="M 517.969286 232.677551 
L 517.969286 182.571429 
" clip-path="url(#pfe0e48fee5)" style="fill: none; stroke: #000000; stroke-width: 0.5; stroke-linecap: square"/>
   </g>
   <g id="line2d_28">
    <path d="M 112.109694 458.155102 
L 112.109694 408.04898 
" clip-path="url(#pfe0e48fee5)" style="fill: none; stroke: #000000; stroke-width: 1.5; stroke-linecap: square"/>
   </g>
   <g id="line2d_29">
    <path d="M 110.230714 458.155102 
L 110.230714 408.04898 
" clip-path="url(#pfe0e48fee5)" style="fill: none; stroke: #000000; stroke-width: 0.5; stroke-linecap: square"/>
   </g>
   <g id="line2d_30">
    <path d="M 113.988673 458.155102 
L 113.988673 408.04898 
" clip-path="url(#pfe0e48fee5)" style="fill: none; stroke: #000000; stroke-width: 0.5; stroke-linecap: square"/>
   </g>
   <g id="line2d_31">
    <path d="M 112.109694 232.677551 
L 112.109694 182.571429 
" clip-path="url(#pfe0e48fee5)" style="fill: none; stroke: #000000; stroke-width: 1.5; stroke-linecap: square"/>
   </g>
   <g id="line2d_32">
    <path d="M 110.230714 232.677551 
L 110.230714 182.571429 
" clip-path="url(#pfe0e48fee5)" style="fill: none; stroke: #000000; stroke-width: 0.5; stroke-linecap: square"/>
   </g>
   <g id="line2d_33">
    <path d="M 113.988673 232.677551 
L 113.988673 182.571429 
" clip-path="url(#pfe0e48fee5)" style="fill: none; stroke: #000000; stroke-width: 0.5; stroke-linecap: square"/>
   </g>
   <g id="line2d_34">
    <path d="M 112.109694 282.783673 
L 112.109694 257.730612 
" clip-path="url(#pfe0e48fee5)" style="fill: none; stroke: #000000; stroke-width: 1.5; stroke-linecap: square"/>
   </g>
   <g id="line2d_35">
    <path d="M 110.230714 282.783673 
L 110.230714 257.730612 
" clip-path="url(#pfe0e48fee5)" style="fill: none; stroke: #000000; stroke-width: 0.5; stroke-linecap: square"/>
   </g>
   <g id="line2d_36">
    <path d="M 113.988673 282.783673 
L 113.988673 257.730612 
" clip-path="url(#pfe0e48fee5)" style="fill: none; stroke: #000000; stroke-width: 0.5; stroke-linecap: square"/>
   </g>
   <g id="patch_61">
    <path d="M 310.968367 552.730408 
C 311.96499 552.730408 312.920927 552.334446 313.625646 551.629727 
C 314.330364 550.925009 314.726327 549.969071 314.726327 548.972449 
C 314.726327 547.975827 314.330364 547.019889 313.625646 546.315171 
C 312.920927 545.610452 311.96499 545.21449 310.968367 545.21449 
C 309.971745 545.21449 309.015807 545.610452 308.311089 546.315171 
C 307.60637 547.019889 307.210408 547.975827 307.210408 548.972449 
C 307.210408 549.969071 307.60637 550.925009 308.311089 551.629727 
C 309.015807 552.334446 309.971745 552.730408 310.968367 552.730408 
z
" clip-path="url(#pfe0e48fee5)" style="fill: #ffffff; stroke: #000000; stroke-width: 0.8; stroke-linejoin: miter"/>
   </g>
   <g id="patch_62">
    <path d="M 310.968367 551.60302 
C 311.666003 551.60302 312.335159 551.325847 312.828462 550.832544 
C 313.321765 550.339241 313.598939 549.670085 313.598939 548.972449 
C 313.598939 548.274813 313.321765 547.605657 312.828462 547.112354 
C 312.335159 546.619051 311.666003 546.341878 310.968367 546.341878 
C 310.270732 546.341878 309.601575 546.619051 309.108272 547.112354 
C 308.61497 547.605657 308.337796 548.274813 308.337796 548.972449 
C 308.337796 549.670085 308.61497 550.339241 309.108272 550.832544 
C 309.601575 551.325847 310.270732 551.60302 310.968367 551.60302 
z
" clip-path="url(#pfe0e48fee5)" style="fill: #ffffff; stroke: #000000; stroke-width: 0.8; stroke-linejoin: miter"/>
   </g>
   <g id="patch_63">
    <path d="M 213.887755 552.730408 
C 214.884378 552.730408 215.840315 552.334446 216.545034 551.629727 
C 217.249752 550.925009 217.645714 549.969071 217.645714 548.972449 
C 217.645714 547.975827 217.249752 547.019889 216.545034 546.315171 
C 215.840315 545.610452 214.884378 545.21449 213.887755 545.21449 
C 212.891133 545.21449 211.935195 545.610452 211.230477 546.315171 
C 210.525758 547.019889 210.129796 547.975827 210.129796 548.972449 
C 210.129796 549.969071 210.525758 550.925009 211.230477 551.629727 
C 211.935195 552.334446 212.891133 552.730408 213.887755 552.730408 
z
" clip-path="url(#pfe0e48fee5)" style="fill: #ffffff; stroke: #000000; stroke-width: 0.8; stroke-linejoin: miter"/>
   </g>
   <g id="patch_64">
    <path d="M 213.887755 551.60302 
C 214.585391 551.60302 215.254547 551.325847 215.74785 550.832544 
C 216.241153 550.339241 216.518327 549.670085 216.518327 548.972449 
C 216.518327 548.274813 216.241153 547.605657 215.74785 547.112354 
C 215.254547 546.619051 214.585391 546.341878 213.887755 546.341878 
C 213.190119 546.341878 212.520963 546.619051 212.02766 547.112354 
C 211.534357 547.605657 211.257184 548.274813 211.257184 548.972449 
C 211.257184 549.670085 211.534357 550.339241 212.02766 550.832544 
C 212.520963 551.325847 213.190119 551.60302 213.887755 551.60302 
z
" clip-path="url(#pfe0e48fee5)" style="fill: #ffffff; stroke: #000000; stroke-width: 0.8; stroke-linejoin: miter"/>
   </g>
   <g id="patch_65">
    <path d="M 116.807143 552.730408 
C 117.803765 552.730408 118.759703 552.334446 119.464421 551.629727 
C 120.16914 550.925009 120.565102 549.969071 120.565102 548.972449 
C 120.565102 547.975827 120.16914 547.019889 119.464421 546.315171 
C 118.759703 545.610452 117.803765 545.21449 116.807143 545.21449 
C 115.81052 545.21449 114.854583 545.610452 114.149864 546.315171 
C 113.445146 547.019889 113.049184 547.975827 113.049184 548.972449 
C 113.049184 549.969071 113.445146 550.925009 114.149864 551.629727 
C 114.854583 552.334446 115.81052 552.730408 116.807143 552.730408 
z
" clip-path="url(#pfe0e48fee5)" style="fill: #ffffff; stroke: #000000; stroke-width: 0.8; stroke-linejoin: miter"/>
   </g>
   <g id="patch_66">
    <path d="M 116.807143 551.60302 
C 117.504779 551.60302 118.173935 551.325847 118.667238 550.832544 
C 119.160541 550.339241 119.437714 549.670085 119.437714 548.972449 
C 119.437714 548.274813 119.160541 547.605657 118.667238 547.112354 
C 118.173935 546.619051 117.504779 546.341878 116.807143 546.341878 
C 116.109507 546.341878 115.440351 546.619051 114.947048 547.112354 
C 114.453745 547.605657 114.176571 548.274813 114.176571 548.972449 
C 114.176571 549.670085 114.453745 550.339241 114.947048 550.832544 
C 115.440351 551.325847 116.109507 551.60302 116.807143 551.60302 
z
" clip-path="url(#pfe0e48fee5)" style="fill: #ffffff; stroke: #000000; stroke-width: 0.8; stroke-linejoin: miter"/>
   </g>
   <g id="line2d_37">
    <path d="M 545.840816 508.261224 
L 545.840816 94.885714 
" clip-path="url(#pfe0e48fee5)" style="fill: none; stroke: #000000; stroke-width: 0.8; stroke-linecap: square"/>
   </g>
   <g id="line2d_38">
    <path d="M 518.282449 508.261224 
L 545.840816 508.261224 
" clip-path="url(#pfe0e48fee5)" style="fill: none; stroke-dasharray: 1.85,0.8; stroke-dashoffset: 0; stroke: #000000; stroke-width: 0.5"/>
   </g>
   <g id="line2d_39">
    <path d="M 518.282449 94.885714 
L 545.840816 94.885714 
" clip-path="url(#pfe0e48fee5)" style="fill: none; stroke-dasharray: 1.85,0.8; stroke-dashoffset: 0; stroke: #000000; stroke-width: 0.5"/>
   </g>
   <g id="line2d_40">
    <path d="M 540.830204 513.271837 
L 550.851429 503.250612 
" clip-path="url(#pfe0e48fee5)" style="fill: none; stroke: #000000; stroke-width: 1.2; stroke-linecap: square"/>
   </g>
   <g id="line2d_41">
    <path d="M 540.830204 99.896327 
L 550.851429 89.875102 
" clip-path="url(#pfe0e48fee5)" style="fill: none; stroke: #000000; stroke-width: 1.2; stroke-linecap: square"/>
   </g>
   <g id="line2d_42">
    <path d="M 82.359184 508.261224 
L 82.359184 94.885714 
" clip-path="url(#pfe0e48fee5)" style="fill: none; stroke: #000000; stroke-width: 0.8; stroke-linecap: square"/>
   </g>
   <g id="line2d_43">
    <path d="M 104.906939 508.261224 
L 82.359184 508.261224 
" clip-path="url(#pfe0e48fee5)" style="fill: none; stroke-dasharray: 1.85,0.8; stroke-dashoffset: 0; stroke: #000000; stroke-width: 0.5"/>
   </g>
   <g id="line2d_44">
    <path d="M 104.906939 94.885714 
L 82.359184 94.885714 
" clip-path="url(#pfe0e48fee5)" style="fill: none; stroke-dasharray: 1.85,0.8; stroke-dashoffset: 0; stroke: #000000; stroke-width: 0.5"/>
   </g>
   <g id="line2d_45">
    <path d="M 77.348571 513.271837 
L 87.369796 503.250612 
" clip-path="url(#pfe0e48fee5)" style="fill: none; stroke: #000000; stroke-width: 1.2; stroke-linecap: square"/>
   </g>
   <g id="line2d_46">
    <path d="M 77.348571 99.896327 
L 87.369796 89.875102 
" clip-path="url(#pfe0e48fee5)" style="fill: none; stroke: #000000; stroke-width: 1.2; stroke-linecap: square"/>
   </g>
   <g id="line2d_47">
    <path d="M 520.787755 483.208163 
L 107.412245 483.208163 
" clip-path="url(#pfe0e48fee5)" style="fill: none; stroke: #000000; stroke-width: 0.8; stroke-linecap: square"/>
   </g>
   <g id="line2d_48">
    <path d="M 520.787755 510.766531 
L 520.787755 483.208163 
" clip-path="url(#pfe0e48fee5)" style="fill: none; stroke-dasharray: 1.85,0.8; stroke-dashoffset: 0; stroke: #000000; stroke-width: 0.5"/>
   </g>
   <g id="line2d_49">
    <path d="M 107.412245 510.766531 
L 107.412245 483.208163 
" clip-path="url(#pfe0e48fee5)" style="fill: none; stroke-dasharray: 1.85,0.8; stroke-dashoffset: 0; stroke: #000000; stroke-width: 0.5"/>
   </g>
   <g id="line2d_50">
    <path d="M 525.798367 488.218776 
L 515.777143 478.197551 
" clip-path="url(#pfe0e48fee5)" style="fill: none; stroke: #000000; stroke-width: 1.2; stroke-linecap: square"/>
   </g>
   <g id="line2d_51">
    <path d="M 112.422857 488.218776 
L 102.401633 478.197551 
" clip-path="url(#pfe0e48fee5)" style="fill: none; stroke: #000000; stroke-width: 1.2; stroke-linecap: square"/>
   </g>
   <g id="line2d_52">
    <path d="M 520.787755 119.938776 
L 107.412245 119.938776 
" clip-path="url(#pfe0e48fee5)" style="fill: none; stroke: #000000; stroke-width: 0.8; stroke-linecap: square"/>
   </g>
   <g id="line2d_53">
    <path d="M 520.787755 97.39102 
L 520.787755 119.938776 
" clip-path="url(#pfe0e48fee5)" style="fill: none; stroke-dasharray: 1.85,0.8; stroke-dashoffset: 0; stroke: #000000; stroke-width: 0.5"/>
   </g>
   <g id="line2d_54">
    <path d="M 107.412245 97.39102 
L 107.412245 119.938776 
" clip-path="url(#pfe0e48fee5)" style="fill: none; stroke-dasharray: 1.85,0.8; stroke-dashoffset: 0; stroke: #000000; stroke-width: 0.5"/>
   </g>
   <g id="line2d_55">
    <path d="M 525.798367 124.949388 
L 515.777143 114.928163 
" clip-path="url(#pfe0e48fee5)" style="fill: none; stroke: #000000; stroke-width: 1.2; stroke-linecap: square"/>
   </g>
   <g id="line2d_56">
    <path d="M 112.422857 124.949388 
L 102.401633 114.928163 
" clip-path="url(#pfe0e48fee5)" style="fill: none; stroke: #000000; stroke-width: 1.2; stroke-linecap: square"/>
   </g>
   <g id="line2d_57">
    <path d="M 511.392857 518.282449 
L 520.787755 518.282449 
" clip-path="url(#pfe0e48fee5)" style="fill: none; stroke: #000000; stroke-width: 0.8; stroke-linecap: square"/>
   </g>
   <g id="line2d_58">
    <path d="M 511.392857 505.755918 
L 511.392857 518.282449 
" clip-path="url(#pfe0e48fee5)" style="fill: none; stroke-dasharray: 1.85,0.8; stroke-dashoffset: 0; stroke: #000000; stroke-width: 0.5"/>
   </g>
   <g id="line2d_59">
    <path d="M 520.787755 505.755918 
L 520.787755 518.282449 
" clip-path="url(#pfe0e48fee5)" style="fill: none; stroke-dasharray: 1.85,0.8; stroke-dashoffset: 0; stroke: #000000; stroke-width: 0.5"/>
   </g>
   <g id="line2d_60">
    <path d="M 506.382245 513.271837 
L 516.403469 523.293061 
" clip-path="url(#pfe0e48fee5)" style="fill: none; stroke: #000000; stroke-width: 1.2; stroke-linecap: square"/>
   </g>
   <g id="line2d_61">
    <path d="M 515.777143 513.271837 
L 525.798367 523.293061 
" clip-path="url(#pfe0e48fee5)" style="fill: none; stroke: #000000; stroke-width: 1.2; stroke-linecap: square"/>
   </g>
   <g id="line2d_62">
    <path d="M 310.968367 389.259184 
L 317.231633 389.259184 
" clip-path="url(#pfe0e48fee5)" style="fill: none; stroke: #000000; stroke-width: 0.8; stroke-linecap: square"/>
   </g>
   <g id="line2d_63">
    <path d="M 310.968367 405.543673 
L 310.968367 389.259184 
" clip-path="url(#pfe0e48fee5)" style="fill: none; stroke-dasharray: 1.85,0.8; stroke-dashoffset: 0; stroke: #000000; stroke-width: 0.5"/>
   </g>
   <g id="line2d_64">
    <path d="M 317.231633 405.543673 
L 317.231633 389.259184 
" clip-path="url(#pfe0e48fee5)" style="fill: none; stroke-dasharray: 1.85,0.8; stroke-dashoffset: 0; stroke: #000000; stroke-width: 0.5"/>
   </g>
   <g id="line2d_65">
    <path d="M 305.957755 384.248571 
L 315.97898 394.269796 
" clip-path="url(#pfe0e48fee5)" style="fill: none; stroke: #000000; stroke-width: 1.2; stroke-linecap: square"/>
   </g>
   <g id="line2d_66">
    <path d="M 312.22102 384.248571 
L 322.242245 394.269796 
" clip-path="url(#pfe0e48fee5)" style="fill: none; stroke: #000000; stroke-width: 1.2; stroke-linecap: square"/>
   </g>
   <g id="line2d_67">
    <path d="M 336.647755 76.095918 
L 291.552245 76.095918 
" clip-path="url(#pfe0e48fee5)" style="fill: none; stroke: #000000; stroke-width: 1.5; stroke-linecap: square"/>
   </g>
   <g id="line2d_68">
    <path d="M 305.080898 85.11502 
L 291.552245 76.095918 
L 305.080898 67.076816 
" clip-path="url(#pfe0e48fee5)" style="fill: none; stroke: #000000; stroke-width: 1.5; stroke-linecap: square"/>
   </g>
   <g id="patch_67">
    <path d="M 314.1 82.860245 
C 315.89392 82.860245 317.614608 82.147513 318.883101 80.87902 
C 320.151594 79.610526 320.864327 77.889839 320.864327 76.095918 
C 320.864327 74.301998 320.151594 72.58131 318.883101 71.312817 
C 317.614608 70.044324 315.89392 69.331592 314.1 69.331592 
C 312.30608 69.331592 310.585392 70.044324 309.316899 71.312817 
C 308.048406 72.58131 307.335673 74.301998 307.335673 76.095918 
C 307.335673 77.889839 308.048406 79.610526 309.316899 80.87902 
C 310.585392 82.147513 312.30608 82.860245 314.1 82.860245 
L 314.1 82.860245 
z
" clip-path="url(#pfe0e48fee5)" style="fill: none; stroke: #000000; stroke-width: 0.8; stroke-linejoin: miter"/>
   </g>
   <g id="text_6">
    <text style="font-weight: 700; font-size: 9.5px; font-family: 'Noto Sans Telugu', 'DejaVu Sans', 'Liberation Sans', 'Arial', sans-serif" transform="translate(393.336542 387.077189)">పడకగది 1</text>
    <text style="font-weight: 700; font-size: 9.5px; font-family: 'Noto Sans Telugu', 'DejaVu Sans', 'Liberation Sans', 'Arial', sans-serif" transform="translate(370.943261 397.098799)">(నైరుతి - ప్రధాన గది)</text>
   </g>
   <g id="text_7">
    <text style="font-size: 8px; font-family: 'Noto Sans Telugu', 'DejaVu Sans', 'Liberation Sans', 'Arial', sans-serif; text-anchor: middle; fill: #c0392b" x="414.312245" y="424.253712" transform="rotate(-0 414.312245 424.253712)">15'6" x 15'6"</text>
   </g>
   <g id="text_8">
    <text style="font-weight: 700; font-size: 9.5px; font-family: 'Noto Sans Telugu', 'DejaVu Sans', 'Liberation Sans', 'Arial', sans-serif" transform="translate(364.237596 186.501293)">వంట మరియు భోజన గది</text>
    <text style="font-weight: 700; font-size: 9.5px; font-family: 'Noto Sans Telugu', 'DejaVu Sans', 'Liberation Sans', 'Arial', sans-serif" transform="translate(391.140409 197.729699)">(ఆగ్నేయం)</text>
   </g>
   <g id="text_9">
    <text style="font-size: 8px; font-family: 'Noto Sans Telugu', 'DejaVu Sans', 'Liberation Sans', 'Arial', sans-serif; text-anchor: middle; fill: #c0392b" x="414.312245" y="223.829222" transform="rotate(-0 414.312245 223.829222)">15'6" x 15'6"</text>
   </g>
   <g id="text_10">
    <text style="font-weight: 700; font-size: 9.5px; font-family: 'Noto Sans Telugu', 'DejaVu Sans', 'Liberation Sans', 'Arial', sans-serif" transform="translate(201.024904 387.082385)">చావడి</text>
    <text style="font-weight: 700; font-size: 9.5px; font-family: 'Noto Sans Telugu', 'DejaVu Sans', 'Liberation Sans', 'Arial', sans-serif" transform="translate(184.901622 397.103994)">(వాయువ్యం)</text>
   </g>
   <g id="text_11">
    <text style="font-size: 8px; font-family: 'Noto Sans Telugu', 'DejaVu Sans', 'Liberation Sans', 'Arial', sans-serif; text-anchor: middle; fill: #c0392b" x="213.887755" y="424.253712" transform="rotate(-0 213.887755 424.253712)">15'6" x 15'6"</text>
   </g>
   <g id="text_12">
    <text style="font-weight: 700; font-size: 9.5px; font-family: 'Noto Sans Telugu', 'DejaVu Sans', 'Liberation Sans', 'Arial', sans-serif" transform="translate(192.912052 186.657895)">పడకగది 2</text>
    <text style="font-weight: 700; font-size: 9.5px; font-family: 'Noto Sans Telugu', 'DejaVu Sans', 'Liberation Sans', 'Arial', sans-serif" transform="translate(188.592521 196.679504)">(ఈశాన్యం)</text>
   </g>
   <g id="text_13">
    <text style="font-size: 8px; font-family: 'Noto Sans Telugu', 'DejaVu Sans', 'Liberation Sans', 'Arial', sans-serif; text-anchor: middle; fill: #c0392b" x="213.887755" y="223.829222" transform="rotate(-0 213.887755 223.829222)">11'6" x 15'6"</text>
   </g>
   <g id="text_14">
    <text style="font-weight: 700; font-size: 8px; font-family: 'Noto Sans Telugu', 'DejaVu Sans', 'Liberation Sans', 'Arial', sans-serif" transform="translate(344.446365 340.408819)">అనుబంధ</text>
    <text style="font-weight: 700; font-size: 8px; font-family: 'Noto Sans Telugu', 'DejaVu Sans', 'Liberation Sans', 'Arial', sans-serif" transform="translate(336.317615 349.864319)">స్నానాల గది 1</text>
   </g>
   <g id="text_15">
    <text style="font-size: 6.5px; font-family: 'Noto Sans Telugu', 'DejaVu Sans', 'Liberation Sans', 'Arial', sans-serif; text-anchor: middle; fill: #c0392b" x="361.07449" y="359.796179" transform="rotate(-0 361.07449 359.796179)">7'0" x 7'0"</text>
   </g>
   <g id="text_16">
    <text style="font-weight: 700; font-size: 8px; font-family: 'Noto Sans Telugu', 'DejaVu Sans', 'Liberation Sans', 'Arial', sans-serif" transform="translate(200.391263 258.98637)">అనుబంధ</text>
    <text style="font-weight: 700; font-size: 8px; font-family: 'Noto Sans Telugu', 'DejaVu Sans', 'Liberation Sans', 'Arial', sans-serif" transform="translate(192.262513 268.44187)">స్నానాల గది 2</text>
   </g>
   <g id="text_17">
    <text style="font-size: 6.5px; font-family: 'Noto Sans Telugu', 'DejaVu Sans', 'Liberation Sans', 'Arial', sans-serif; text-anchor: middle; fill: #c0392b" x="217.019388" y="278.37373" transform="rotate(-0 217.019388 278.37373)">5'0" x 7'0"</text>
   </g>
   <g id="text_18">
    <text style="font-weight: 700; font-size: 8px; font-family: 'Noto Sans Telugu', 'DejaVu Sans', 'Liberation Sans', 'Arial', sans-serif; text-anchor: middle" x="213.887755" y="521.080497" transform="rotate(-0 213.887755 521.080497)">చిన్న పంచ</text>
   </g>
   <g id="text_19">
    <text style="font-size: 6.5px; font-family: 'Noto Sans Telugu', 'DejaVu Sans', 'Liberation Sans', 'Arial', sans-serif; text-anchor: middle; fill: #c0392b" x="213.887755" y="535.167608" transform="rotate(-0 213.887755 535.167608)">4'0" x 15'6"</text>
   </g>
   <g id="text_20">
    <text style="font-weight: 700; font-size: 8px; font-family: 'Noto Sans Telugu', 'DejaVu Sans', 'Liberation Sans', 'Arial', sans-serif" transform="translate(131.603954 322.592148)">పూజా</text>
    <text style="font-weight: 700; font-size: 8px; font-family: 'Noto Sans Telugu', 'DejaVu Sans', 'Liberation Sans', 'Arial', sans-serif" transform="translate(136.312079 330.108898)">గది</text>
   </g>
   <g id="text_21">
    <text style="font-size: 6.5px; font-family: 'Noto Sans Telugu', 'DejaVu Sans', 'Liberation Sans', 'Arial', sans-serif; text-anchor: middle; fill: #c0392b" x="141.860204" y="341.038883" transform="rotate(-0 141.860204 341.038883)">4' x 4'</text>
   </g>
   <g id="text_22">
    <text style="font-weight: 700; font-size: 8px; font-family: 'Noto Sans Telugu', 'DejaVu Sans', 'Liberation Sans', 'Arial', sans-serif; text-anchor: middle" x="285.915306" y="269.977385" transform="rotate(-0 285.915306 269.977385)">నడవ</text>
   </g>
   <g id="text_23">
    <text style="font-size: 6.5px; font-family: 'Noto Sans Telugu', 'DejaVu Sans', 'Liberation Sans', 'Arial', sans-serif; text-anchor: middle; fill: #c0392b" x="285.915306" y="284.669495" transform="rotate(-0 285.915306 284.669495)">4' x 4'</text>
   </g>
   <g id="text_24">
    <g id="patch_68">
     <path d="M 44.779592 601.652245 
L 198.773342 601.652245 
Q 201.973342 601.652245 201.973342 598.452245 
L 201.973342 571.734995 
Q 201.973342 568.534995 198.773342 568.534995 
L 44.779592 568.534995 
Q 41.579592 568.534995 41.579592 571.734995 
L 41.579592 598.452245 
Q 41.579592 601.652245 44.779592 601.652245 
z
" style="fill: #ffffff; stroke: #000000; stroke-width: 0.8; stroke-linejoin: miter"/>
    </g>
    <text style="font-weight: 700; font-size: 8px; font-family: 'Noto Sans Telugu', 'DejaVu Sans', 'Liberation Sans', 'Arial', sans-serif" transform="translate(44.779592 575.887495)">గోడల కొలతలు:</text>
    <text style="font-weight: 700; font-size: 8px; font-family: 'Noto Sans Telugu', 'DejaVu Sans', 'Liberation Sans', 'Arial', sans-serif" transform="translate(44.779592 584.334245)">బాహ్య గోడలు: 9 అంగుళాలు (0.75 అడు.)</text>
    <text style="font-weight: 700; font-size: 8px; font-family: 'Noto Sans Telugu', 'DejaVu Sans', 'Liberation Sans', 'Arial', sans-serif" transform="translate(44.779592 595.564745)">అంతర్గత గోడలు: 6 అంగుళాలు (0.50 అడు.)</text>
   </g>
   <g id="text_25">
    <text style="font-style: italic; font-size: 7.5px; font-family: 'Noto Sans Telugu', 'DejaVu Sans', 'Liberation Sans', 'Arial', sans-serif" transform="translate(440.655397 470.252382)">నైరుతి మూల (SW)</text>
    <text style="font-style: italic; font-size: 7.5px; font-family: 'Noto Sans Telugu', 'DejaVu Sans', 'Liberation Sans', 'Arial', sans-serif" transform="translate(411.541335 480.501132)">[భూమి తత్వం - పడకగది 1]</text>
   </g>
   <g id="text_26">
    <text style="font-style: italic; font-size: 7.5px; font-family: 'Noto Sans Telugu', 'DejaVu Sans', 'Liberation Sans', 'Arial', sans-serif" transform="translate(433.530397 126.223541)">ఆగ్నేయ మూల (SE)</text>
    <text style="font-style: italic; font-size: 7.5px; font-family: 'Noto Sans Telugu', 'DejaVu Sans', 'Liberation Sans', 'Arial', sans-serif" transform="translate(420.758131 136.472291)">[అగ్ని తత్వం - వంటగది]</text>
   </g>
   <g id="text_27">
    <text style="font-style: italic; font-size: 7.5px; font-family: 'Noto Sans Telugu', 'DejaVu Sans', 'Liberation Sans', 'Arial', sans-serif" transform="translate(132.465306 470.252382)">వాయువ్య మూల (NW)</text>
    <text style="font-style: italic; font-size: 7.5px; font-family: 'Noto Sans Telugu', 'DejaVu Sans', 'Liberation Sans', 'Arial', sans-serif" transform="translate(132.465306 480.501132)">[వాయు తత్వం - చావడి]</text>
   </g>
   <g id="text_28">
    <text style="font-style: italic; font-size: 7.5px; font-family: 'Noto Sans Telugu', 'DejaVu Sans', 'Liberation Sans', 'Arial', sans-serif" transform="translate(132.465306 126.223541)">ఈశాన్య మూల (NE)</text>
    <text style="font-style: italic; font-size: 7.5px; font-family: 'Noto Sans Telugu', 'DejaVu Sans', 'Liberation Sans', 'Arial', sans-serif" transform="translate(132.465306 136.472291)">[జల తత్వం - పడకగది 2]</text>
   </g>
   <g id="text_29">
    <g id="patch_69">
     <path d="M 552.360816 332.238469 
L 552.360816 270.908469 
L 539.320816 270.908469 
L 539.320816 332.238469 
z
" style="fill: #ffffff"/>
    </g>
    <text style="font-weight: 700; font-size: 8px; font-family: 'Noto Sans Telugu', 'DejaVu Sans', 'Liberation Sans', 'Arial', sans-serif; fill: #c0392b" transform="translate(547.873316 330.638469) rotate(-90)">33' 0" (వెడల్పు)</text>
   </g>
   <g id="text_30">
    <g id="patch_70">
     <path d="M 88.879184 332.238469 
L 88.879184 270.908469 
L 75.839184 270.908469 
L 75.839184 332.238469 
z
" style="fill: #ffffff"/>
    </g>
    <text style="font-weight: 700; font-size: 8px; font-family: 'Noto Sans Telugu', 'DejaVu Sans', 'Liberation Sans', 'Arial', sans-serif; fill: #c0392b" transform="translate(84.391684 330.638469) rotate(-90)">33' 0" (వెడల్పు)</text>
   </g>
   <g id="text_31">
    <g id="patch_71">
     <path d="M 285.13875 489.343788 
L 343.06125 489.343788 
L 343.06125 477.072538 
L 285.13875 477.072538 
z
" style="fill: #ffffff"/>
    </g>
    <text style="font-weight: 700; font-size: 8px; font-family: 'Noto Sans Telugu', 'DejaVu Sans', 'Liberation Sans', 'Arial', sans-serif; text-anchor: middle; fill: #c0392b" x="314.1" y="484.856288" transform="rotate(-0 314.1 484.856288)">33' 0" (పొడవు)</text>
   </g>
   <g id="text_32">
    <g id="patch_72">
     <path d="M 285.13875 126.074401 
L 343.06125 126.074401 
L 343.06125 113.803151 
L 285.13875 113.803151 
z
" style="fill: #ffffff"/>
    </g>
    <text style="font-weight: 700; font-size: 8px; font-family: 'Noto Sans Telugu', 'DejaVu Sans', 'Liberation Sans', 'Arial', sans-serif; text-anchor: middle; fill: #c0392b" x="314.1" y="121.586901" transform="rotate(-0 314.1 121.586901)">33' 0" (పొడవు)</text>
   </g>
   <g id="text_33">
    <g id="patch_73">
     <path d="M 492.885931 522.834324 
L 539.294681 522.834324 
L 539.294681 513.730574 
L 492.885931 513.730574 
z
" style="fill: #ffffff"/>
    </g>
    <text style="font-weight: 700; font-size: 8px; font-family: 'Noto Sans Telugu', 'DejaVu Sans', 'Liberation Sans', 'Arial', sans-serif; text-anchor: middle; fill: #c0392b" x="516.090306" y="521.138074" transform="rotate(-0 516.090306 521.138074)">9 అంగుళాలు</text>
   </g>
   <g id="text_34">
    <g id="patch_74">
     <path d="M 290.895625 393.811059 
L 337.304375 393.811059 
L 337.304375 384.707309 
L 290.895625 384.707309 
z
" style="fill: #ffffff"/>
    </g>
    <text style="font-weight: 700; font-size: 8px; font-family: 'Noto Sans Telugu', 'DejaVu Sans', 'Liberation Sans', 'Arial', sans-serif; text-anchor: middle; fill: #c0392b" x="314.1" y="392.114809" transform="rotate(-0 314.1 392.114809)">6 అంగుళాలు</text>
   </g>
  </g>
 </g>
 <defs>
  <clipPath id="pfe0e48fee5">
   <rect x="7.2" y="7.2" width="613.8" height="601.273469"/>
  </clipPath>
 </defs>
</svg>
