<svg width="2400" height="2080" viewBox="-50 -50 750 650" xmlns="http://www.w3.org/2000/svg">
  <defs>
    <pattern id="grid" width="10" height="10" patternUnits="userSpaceOnUse">
      <path d="M 10 0 L 0 0 0 10" fill="none" stroke="#e0e0e0" stroke-width="0.5"/>
    </pattern>
  </defs>
  <rect x="-50" y="-50" width="750" height="650" fill="url(#grid)" />
  
  <!-- Plot Boundary -->
  <polygon points="0,450 0,0 570,0 420,450" fill="#e8f5e9" stroke="#2e7d32" stroke-width="3"/>
  <text x="-15" y="225" font-family="Arial" font-size="12" text-anchor="middle" transform="rotate(-90 -15 225)" fill="#000">ఉత్తర సరిహద్దు (11' ఖాళీ)</text>
  <text x="285" y="-15" font-family="Arial" font-size="12" text-anchor="middle" fill="#000">తూర్పు సరిహద్దు (10' ఖాళీ)</text>
  <text x="210" y="475" font-family="Arial" font-size="12" text-anchor="middle" fill="#000">పడమర సరిహద్దు (5' ఖాళీ)</text>
  
  <!-- Adjusted South Boundary Text to prevent overlap -->
  <text x="515" y="220" font-family="Arial" font-size="12" text-anchor="middle" transform="rotate(-71.5 515 220)" fill="#000">దక్షిణ సరిహద్దు (0' ఖాళీ)</text>

  <!-- Plot Dimensions Lines and Text -->
  <!-- North (Left) 45' -->
  <line x1="15" y1="0" x2="15" y2="210" stroke="#1b5e20" stroke-width="1"/>
  <line x1="15" y1="240" x2="15" y2="450" stroke="#1b5e20" stroke-width="1"/>
  <line x1="10" y1="0" x2="20" y2="0" stroke="#1b5e20" stroke-width="1"/>
  <line x1="10" y1="450" x2="20" y2="450" stroke="#1b5e20" stroke-width="1"/>
  <text x="15" y="225" font-family="Arial" font-size="12" fill="#1b5e20" font-weight="bold" text-anchor="middle" transform="rotate(-90 15 225)">45'</text>

  <!-- West (Bottom) 42' -->
  <line x1="0" y1="435" x2="185" y2="435" stroke="#1b5e20" stroke-width="1"/>
  <line x1="235" y1="435" x2="420" y2="435" stroke="#1b5e20" stroke-width="1"/>
  <line x1="0" y1="430" x2="0" y2="440" stroke="#1b5e20" stroke-width="1"/>
  <line x1="420" y1="430" x2="420" y2="440" stroke="#1b5e20" stroke-width="1"/>
  <text x="210" y="440" font-family="Arial" font-size="12" fill="#1b5e20" font-weight="bold" text-anchor="middle">42'</text>

  <!-- East (Top) 42' -->
  <line x1="0" y1="15" x2="185" y2="15" stroke="#1b5e20" stroke-width="1"/>
  <line x1="235" y1="15" x2="420" y2="15" stroke="#1b5e20" stroke-width="1"/>
  <line x1="0" y1="10" x2="0" y2="20" stroke="#1b5e20" stroke-width="1"/>
  <line x1="420" y1="10" x2="420" y2="20" stroke="#1b5e20" stroke-width="1"/>
  <text x="210" y="20" font-family="Arial" font-size="12" fill="#1b5e20" font-weight="bold" text-anchor="middle">42'</text>

  <!-- East Kuni (Top Right) 15' -->
  <line x1="420" y1="15" x2="480" y2="15" stroke="#d32f2f" stroke-width="1"/>
  <line x1="510" y1="15" x2="570" y2="15" stroke="#d32f2f" stroke-width="1"/>
  <line x1="570" y1="10" x2="570" y2="20" stroke="#d32f2f" stroke-width="1"/>
  <text x="495" y="20" font-family="Arial" font-size="12" fill="#d32f2f" font-weight="bold" text-anchor="middle">15'</text>

  <!-- Divider line for Kuni boundary -->
  <line x1="420" y1="0" x2="420" y2="30" stroke="#d32f2f" stroke-width="1" stroke-dasharray="4"/>

  <!-- Kuni area shading -->
  <polygon points="420,450 420,0 570,0" fill="#c8e6c9" opacity="0.5"/>
  <text x="470" y="150" font-family="Arial" font-size="10" fill="#2e7d32">వదిలేసిన ఆగ్నేయ మూల</text>

  <!-- House Boundary Base -->
  <rect x="110" y="100" width="310" height="300" fill="#fff" stroke="#000" stroke-width="4"/>
  
  <!-- Color Fills for Small Rooms -->
  <!-- NE Bath -->
  <rect x="230" y="150" width="40" height="60" fill="#e3f2fd" stroke="none"/>
  <!-- Nadava -->
  <rect x="230" y="210" width="40" height="40" fill="#f5f5f5" stroke="none"/>
  <!-- SW Bath -->
  <rect x="270" y="340" width="50" height="60" fill="#e3f2fd" stroke="none"/>
  <!-- Pooja Room -->
  <rect x="110" y="250" width="40" height="40" fill="#fff9c4" stroke="none"/>

  <!-- Internal Walls -->
  <!-- Main Cross -->
  <line x1="270" y1="100" x2="270" y2="400" stroke="#000" stroke-width="3"/>
  <line x1="110" y1="250" x2="420" y2="250" stroke="#000" stroke-width="3"/>
  
  <!-- Cutout Walls -->
  <!-- NE Bath + Nadava -->
  <polyline points="230,250 230,150 270,150" fill="none" stroke="#000" stroke-width="3"/>
  <line x1="230" y1="210" x2="270" y2="210" stroke="#000" stroke-width="3"/>
  <!-- SW Bath -->
  <polyline points="320,400 320,340 270,340" fill="none" stroke="#000" stroke-width="3"/>
  <!-- Pooja Room -->
  <polyline points="150,250 150,290 110,290" fill="none" stroke="#000" stroke-width="3"/>

  <!-- Texts for small rooms -->
  <text x="250" y="180" font-family="Arial" font-size="10" text-anchor="middle" transform="rotate(-90 250 180)">బాత్ (4'x6')</text>
  <text x="295" y="370" font-family="Arial" font-size="10" text-anchor="middle" transform="rotate(-90 295 370)">బాత్ (5'x6')</text>
  <text x="130" y="270" font-family="Arial" font-size="10" text-anchor="middle" transform="rotate(-90 130 270)">పూజ</text>

  <!-- Room Labels -->
  <!-- Hall -->
  <text x="190" y="320" font-family="Arial" font-size="12" font-weight="bold" text-anchor="middle">హాల్</text>
  <text x="190" y="335" font-family="Arial" font-size="10" text-anchor="middle">16' x 15'</text>

  <!-- SW Bedroom -->
  <text x="345" y="320" font-family="Arial" font-size="12" font-weight="bold" text-anchor="middle">నైరుతి బెడ్ రూమ్</text>
  <text x="345" y="335" font-family="Arial" font-size="10" text-anchor="middle">15' x 15'</text>

  <!-- NE Bedroom -->
  <text x="170" y="150" font-family="Arial" font-size="12" font-weight="bold" text-anchor="middle">ఈశాన్యం బెడ్ రూమ్</text>
  <text x="170" y="165" font-family="Arial" font-size="10" text-anchor="middle">16' x 15'</text>

  <!-- Kitchen -->
  <text x="345" y="170" font-family="Arial" font-size="12" font-weight="bold" text-anchor="middle">వంట గది</text>
  <text x="345" y="185" font-family="Arial" font-size="10" text-anchor="middle">15' x 15'</text>

  <!-- Doors -->
  <!-- Main Door -->
  <rect x="175" y="395" width="30" height="10" fill="#8d6e63"/>
  <text x="190" y="420" font-family="Arial" font-size="10" fill="#d32f2f" text-anchor="middle">మెయిన్ డోర్</text>

  <!-- Kitchen East Exit Door -->
  <rect x="280" y="95" width="30" height="10" fill="#fff" stroke="#fff" stroke-width="2"/>

  <!-- Nadava to NE Bed Door -->
  <rect x="225" y="220" width="10" height="20" fill="#fff" stroke="#fff" stroke-width="2"/>

  <!-- Hall to SW Bed Door -->
  <rect x="265" y="310" width="10" height="20" fill="#fff" stroke="#fff" stroke-width="2"/>
  
  <!-- NE Bathroom Door -->
  <rect x="225" y="175" width="10" height="20" fill="#fff" stroke="#fff" stroke-width="2"/>

  <!-- SW Bathroom Door -->
  <rect x="315" y="355" width="10" height="20" fill="#fff" stroke="#fff" stroke-width="2"/>

  <!-- Pooja Room Door -->
  <rect x="145" y="260" width="10" height="20" fill="#fff" stroke="#fff" stroke-width="2"/>

  <!-- Hall to Nadava (Archway) -->
  <rect x="235" y="245" width="30" height="10" fill="#fff" stroke="#fff" stroke-width="2"/>

  <!-- Nadava to Kitchen (Archway) -->
  <rect x="265" y="215" width="10" height="30" fill="#fff" stroke="#fff" stroke-width="2"/>

  <!-- Dimensions/Setbacks -->
  <line x1="200" y1="450" x2="200" y2="400" stroke="#d32f2f" stroke-width="1" stroke-dasharray="4"/>
  <text x="210" y="430" font-family="Arial" font-size="10" fill="#d32f2f">5'</text>

  <line x1="0" y1="300" x2="110" y2="300" stroke="#d32f2f" stroke-width="1" stroke-dasharray="4"/>
  <text x="55" y="295" font-family="Arial" font-size="10" text-anchor="middle" fill="#d32f2f">11'</text>

  <line x1="200" y1="100" x2="200" y2="0" stroke="#d32f2f" stroke-width="1" stroke-dasharray="4"/>
  <text x="215" y="50" font-family="Arial" font-size="10" fill="#d32f2f">10'</text>

  <!-- Compass -->
  <g transform="translate(600, 50)">
    <circle cx="0" cy="0" r="20" fill="none" stroke="#000" stroke-width="2"/>
    <text x="-35" y="5" font-family="Arial" font-size="12" text-anchor="middle">ఉత్తరం</text>
    <text x="35" y="5" font-family="Arial" font-size="12" text-anchor="middle">దక్షిణం</text>
    <text x="0" y="-30" font-family="Arial" font-size="12" text-anchor="middle">తూర్పు</text>
    <text x="0" y="40" font-family="Arial" font-size="12" text-anchor="middle">పడమర</text>
    <line x1="-20" y1="0" x2="20" y2="0" stroke="#000" stroke-width="2"/>
    <line x1="0" y1="-20" x2="0" y2="20" stroke="#000" stroke-width="2"/>
  </g>

  <!-- Area Calculation Box (Moved to bottom center-right to prevent cutoff) -->
  <g transform="translate(450, 490)">
    <rect x="0" y="0" width="220" height="90" fill="#fcfcfc" stroke="#333" stroke-width="1.5" rx="5"/>
    <text x="110" y="20" font-family="Arial" font-size="12" font-weight="bold" text-anchor="middle" fill="#000">వైశాల్యం లెక్కలు (Area Info)</text>
    <line x1="10" y1="30" x2="210" y2="30" stroke="#ccc" stroke-width="1"/>
    
    <text x="15" y="45" font-family="Arial" font-size="11" fill="#000">లోపలి స్థలం (Carpet):</text>
    <text x="205" y="45" font-family="Arial" font-size="11" font-weight="bold" text-anchor="end" fill="#000">930 SFT</text>
    
    <text x="15" y="60" font-family="Arial" font-size="11" fill="#000">గోడలు (Wall Area):</text>
    <text x="205" y="60" font-family="Arial" font-size="11" font-weight="bold" text-anchor="end" fill="#000">118 SFT</text>
    
    <line x1="10" y1="70" x2="210" y2="70" stroke="#ccc" stroke-width="1"/>
    
    <text x="15" y="83" font-family="Arial" font-size="11" font-weight="bold" fill="#d32f2f">మొత్తం (Built-up):</text>
    <text x="205" y="83" font-family="Arial" font-size="11" font-weight="bold" text-anchor="end" fill="#d32f2f">~1048 SFT</text>
  </g>
</svg>
